HIERARCHY
ROOT Hips
{
	OFFSET	0.00	0.00	0.00
	CHANNELS 6 Xposition Yposition Zposition Zrotation Xrotation Yrotation
	JOINT LeftUpLeg
	{
		OFFSET	 0.126116	-0.014019	-0.065224
		CHANNELS 3 Zrotation Xrotation Yrotation
		JOINT LeftLeg
		{
			OFFSET	 0.000000	 0.000000	 0.569914
			CHANNELS 3 Zrotation Xrotation Yrotation
			JOINT LeftFoot
			{
				OFFSET	 0.000000	 0.000000	 0.544423
				CHANNELS 3 Zrotation Xrotation Yrotation
				JOINT LeftToeBase
				{
					OFFSET	 0.000000	 0.000000	 0.207117
					CHANNELS 3 Zrotation Xrotation Yrotation
					End Site
					{
						OFFSET	 0.000000	 0.000000	 0.207117
					}
				}
			}
		}
	}
	JOINT RightUpLeg
	{
		OFFSET	-0.124023	-0.008373	-0.065224
		CHANNELS 3 Zrotation Xrotation Yrotation
		JOINT RightLeg
		{
			OFFSET	 0.000000	 0.000000	 0.570047
			CHANNELS 3 Zrotation Xrotation Yrotation
			JOINT RightFoot
			{
				OFFSET	 0.000000	 0.000000	 0.544354
				CHANNELS 3 Zrotation Xrotation Yrotation
				JOINT RightToeBase
				{
					OFFSET	 0.000000	 0.000000	 0.207540
					CHANNELS 3 Zrotation Xrotation Yrotation
					End Site
					{
						OFFSET	 0.000000	 0.000000	 0.207540
					}
				}
			}
		}
	}
	JOINT Spine
	{
		OFFSET	 0.000184	-0.007763	 0.117403
		CHANNELS 3 Zrotation Xrotation Yrotation
		JOINT Spine1
		{
			OFFSET	 0.000000	 0.000000	 0.137269
			CHANNELS 3 Zrotation Xrotation Yrotation
			JOINT Spine2
			{
				OFFSET	 0.000000	 0.000000	 0.156879
				CHANNELS 3 Zrotation Xrotation Yrotation
				JOINT LeftShoulder
				{
					OFFSET	 0.080501	-0.002496	 0.160144
					CHANNELS 3 Zrotation Xrotation Yrotation
					JOINT LeftArm
					{
						OFFSET	 0.000000	 0.000000	 0.164363
						CHANNELS 3 Zrotation Xrotation Yrotation
						JOINT LeftForeArm
						{
							OFFSET	 0.000000	 0.000000	 0.364576
							CHANNELS 3 Zrotation Xrotation Yrotation
							JOINT LeftHand
							{
								OFFSET	 0.000000	 0.000000	 0.360812
								CHANNELS 3 Zrotation Xrotation Yrotation
								JOINT LeftHandIndex1
								{
									OFFSET	 0.000000	 0.000000	 0.086006
									CHANNELS 3 Zrotation Xrotation Yrotation
									JOINT LeftHandIndex2
									{
										OFFSET	 0.000000	 0.000000	 0.047236
										CHANNELS 3 Zrotation Xrotation Yrotation
										JOINT LeftHandIndex3
										{
											OFFSET	-0.004284	-0.000551	 0.038166
											CHANNELS 3 Zrotation Xrotation Yrotation
											End Site
											{
												OFFSET	-0.004284	-0.000551	 0.038166
											}
										}
									}
								}
							}
						}
					}
				}
				JOINT Neck
				{
					OFFSET	 0.000000	 0.000000	 0.176489
					CHANNELS 3 Zrotation Xrotation Yrotation
					JOINT Head
					{
						OFFSET	 0.000000	-0.001747	 0.077940
						CHANNELS 3 Zrotation Xrotation Yrotation
						End Site
						{
							OFFSET	 0.000000	-0.001747	 0.077940
						}
					}
				}
				JOINT RightShoulder
				{
					OFFSET	-0.080363	 0.000306	 0.159706
					CHANNELS 3 Zrotation Xrotation Yrotation
					JOINT RightArm
					{
						OFFSET	 0.000000	 0.000000	 0.164196
						CHANNELS 3 Zrotation Xrotation Yrotation
						JOINT RightForeArm
						{
							OFFSET	 0.000000	 0.000000	 0.365611
							CHANNELS 3 Zrotation Xrotation Yrotation
							JOINT RightHand
							{
								OFFSET	 0.000000	 0.000000	 0.360648
								CHANNELS 3 Zrotation Xrotation Yrotation
								JOINT RightHandIndex1
								{
									OFFSET	 0.000000	 0.000000	 0.069977
									CHANNELS 3 Zrotation Xrotation Yrotation
									JOINT RightHandIndex2
									{
										OFFSET	 0.000000	 0.000000	 0.052305
										CHANNELS 3 Zrotation Xrotation Yrotation
										JOINT RightHandIndex3
										{
											OFFSET	 0.009002	-0.000782	 0.042196
											CHANNELS 3 Zrotation Xrotation Yrotation
											End Site
											{
												OFFSET	 0.009002	-0.000782	 0.042196
											}
										}
									}
								}
							}
						}
					}
				}
			}
		}
	}
}
MOTION
Frames:    11
Frame Time: 0.03333334
-0.000575	 0.020711	 1.257003	 0.003153	 0.003738	-0.141062	 16.992110	-7.394503	 175.772900	 1.319942	-20.654000	-1.242577	-14.029300	 73.933710	 8.510241	-2.385833	 28.452760	 0.000004	-17.077440	-8.022727	-175.594500	-1.294103	-21.312670	 1.262411	 13.747510	 74.212740	-8.357102	 2.384658	 28.388730	 0.000004	-11.539460	 2.740895	-0.060825	 1.654839	 3.642251	 0.660522	-4.976390	-4.532987	-1.089800	-91.776190	 78.527450	-180.000000	 44.668580	 32.663900	-61.246620	-17.023060	 0.885396	-4.527724	-30.449800	 0.806881	-4.335035	-2.635965	 4.993658	 6.788941	-5.165319	 0.784187	 3.516649	-5.225038	 0.466231	 0.424329	-0.000002	-3.783157	-0.089647	-4.830858	 4.825551	 0.203657	 89.782100	 78.203900	 180.000000	-59.512820	 39.445480	 58.149300	 15.432120	 4.310384	 10.166390	 29.856860	-0.796660	 8.432112	 6.112037	 4.509576	-0.364401	 4.968462	 1.518543	-9.347576	 5.168945	 0.703820	 2.021906
-0.000575	 0.020781	 1.256013	 0.003151	 0.003740	-0.141056	 17.221270	-7.695284	 175.777900	 1.306476	-21.225390	-1.280269	-14.318710	 74.194750	 8.812067	-2.385833	 28.452760	 0.000004	-17.306390	-8.316198	-175.599700	-1.280767	-21.867270	 1.298644	 14.025250	 74.467290	-8.646134	 2.384658	 28.388730	 0.000004	-12.508430	 2.740884	-0.060829	 1.654842	 3.642240	 0.660493	-4.976371	-4.532977	-1.089778	-91.776090	 78.527470	 179.999900	 44.630140	 32.625290	-61.166050	-17.629090	 0.982606	-4.803924	-30.528130	 0.829650	-4.333554	-2.635965	 4.993658	 6.788941	-5.165319	 0.784187	 3.516649	-5.225038	 0.466231	 0.424329	-0.000002	-3.783157	-0.089647	-4.830858	 4.825551	 0.203657	 89.782160	 78.203920	 179.999900	-59.004200	 39.142740	 57.545460	 15.716940	 5.467581	 12.088610	 29.967320	-0.872655	 8.375606	 6.112037	 4.509576	-0.364401	 4.968462	 1.518543	-9.347576	 5.168945	 0.703820	 2.021906
-0.000576	 0.020837	 1.255208	 0.003153	 0.003738	-0.141058	 17.407680	-7.934242	 175.781500	 1.295467	-21.678380	-1.310363	-14.554560	 74.401040	 9.057731	-2.385833	 28.452760	 0.000004	-17.492630	-8.549624	-175.603700	-1.269879	-22.307490	 1.327603	 14.251840	 74.668790	-8.881633	 2.384658	 28.388730	 0.000004	-13.285240	 2.740895	-0.060830	 1.654840	 3.642236	 0.660506	-4.976370	-4.532978	-1.089786	-91.776170	 78.527470	 180.000000	 44.597860	 32.596230	-61.102180	-18.117460	 1.062891	-5.021925	-30.591730	 0.848125	-4.332336	-2.635965	 4.993658	 6.788941	-5.165319	 0.784187	 3.516649	-5.225038	 0.466231	 0.424329	-0.000002	-3.783157	-0.089647	-4.830858	 4.825551	 0.203657	 89.782170	 78.203900	 179.999900	-58.612110	 38.907210	 57.179890	 15.936110	 6.324103	 13.475050	 30.057220	-0.934763	 8.329745	 6.112037	 4.509576	-0.364401	 4.968462	 1.518543	-9.347576	 5.168945	 0.703820	 2.021906
-0.000577	 0.020954	 1.253559	 0.003153	 0.003738	-0.141058	 17.791420	-8.411447	 175.787900	 1.272678	-22.580530	-1.370865	-15.041970	 74.810200	 9.564669	-2.385833	 28.452760	 0.000004	-17.875950	-9.016623	-175.610700	-1.247324	-23.185760	 1.385937	 14.720720	 75.069240	-9.368223	 2.384658	 28.388730	 0.000004	-14.850130	 2.740896	-0.060830	 1.654841	 3.642241	 0.660517	-4.976375	-4.532980	-1.089787	-91.776110	 78.527470	 179.999900	 44.532570	 32.531910	-60.966430	-19.113360	 1.243292	-5.470941	-30.722520	 0.886087	-4.329709	-2.635965	 4.993658	 6.788941	-5.165319	 0.784187	 3.516649	-5.225038	 0.466231	 0.424329	-0.000002	-3.783157	-0.089647	-4.830858	 4.825551	 0.203657	 89.782160	 78.203890	 179.999900	-57.922470	 38.484330	 56.995780	 16.422490	 7.640682	 15.517400	 30.241660	-1.063113	 8.235584	 6.112037	 4.509576	-0.364401	 4.968462	 1.518543	-9.347576	 5.168945	 0.703820	 2.021906
-0.000580	 0.021347	 1.248122	 0.003153	 0.003738	-0.141062	 19.066860	-9.881147	 175.801000	 1.195469	-25.337980	-1.560941	-16.694410	 76.045840	 11.276140	-2.385833	 28.452760	 0.000004	-19.150050	-10.460410	-175.626900	-1.170905	-25.880540	 1.569931	 16.315510	 76.284560	-11.016580	 2.384658	 28.388730	 0.000004	-19.685120	 2.740896	-0.060825	 1.654839	 3.642241	 0.660526	-4.976387	-4.532980	-1.089800	-91.776140	 78.527430	 180.000000	 44.306190	 32.312770	-60.499350	-22.326940	 1.932206	-6.883454	-31.155490	 1.011230	-4.319908	-2.635965	 4.993658	 6.788941	-5.165319	 0.784187	 3.516649	-5.225038	 0.466231	 0.424329	-0.000002	-3.783157	-0.089647	-4.830858	 4.825551	 0.203657	 89.782110	 78.203920	 180.000000	-55.856380	 37.235440	 58.882670	 18.041100	 10.349470	 19.214740	 30.720380	-1.534718	 7.850372	 6.112037	 4.509576	-0.364401	 4.968462	 1.518543	-9.347576	 5.168945	 0.703820	 2.021906
-0.000584	 0.021760	 1.242366	 0.003153	 0.003738	-0.141058	 20.411470	-11.284030	 175.804800	 1.111370	-27.940270	-1.748449	-18.519910	 77.189520	 13.156350	-2.385833	 28.452760	 0.000004	-20.493380	-11.844570	-175.635200	-1.087653	-28.434940	 1.752271	 18.085370	 77.416350	-12.835870	 2.384658	 28.388730	 0.000004	-24.071930	 2.740898	-0.060830	 1.654840	 3.642249	 0.660521	-4.976390	-4.532986	-1.089800	-91.776150	 78.527450	 180.000000	 44.052770	 32.065910	-59.969640	-25.529250	 2.790264	-8.241286	-31.609870	 1.141568	-4.307875	-2.635965	 4.993658	 6.788941	-5.165319	 0.784187	 3.516649	-5.225038	 0.466231	 0.424329	-0.000002	-3.783157	-0.089647	-4.830858	 4.825551	 0.203657	 89.782130	 78.203890	 180.000000	-53.556220	 35.868820	 62.390820	 19.397470	 12.292600	 21.424880	 30.915480	-2.139017	 7.259618	 6.112037	 4.509576	-0.364401	 4.968462	 1.518543	-9.347576	 5.168945	 0.703820	 2.021906
-0.000586	 0.022138	 1.236912	 0.003153	 0.003738	-0.141062	 21.661660	-12.489480	 175.802200	 1.030432	-30.153020	-1.915129	-20.323580	 78.142930	 15.005440	-2.385833	 28.452760	 0.000004	-21.742660	-13.037410	-175.637600	-1.007514	-30.613420	 1.914872	 19.841370	 78.364210	-14.632730	 2.384658	 28.388730	 0.000004	-27.386370	 2.740894	-0.060825	 1.654840	 3.642254	 0.660503	-4.976385	-4.532991	-1.089790	-91.776210	 78.527470	-180.000000	 43.810480	 31.822010	-59.450790	-28.413120	 3.673838	-9.368997	-31.934770	 1.272933	-4.279059	-2.635965	 4.993658	 6.788941	-5.165319	 0.784187	 3.516649	-5.225038	 0.466231	 0.424329	-0.000002	-3.783157	-0.089647	-4.830858	 4.825551	 0.203657	 89.782130	 78.203890	 180.000000	-51.058600	 34.385310	 65.460690	 19.796760	 14.289550	 23.801780	 30.635160	-2.864021	 6.361202	 6.112037	 4.509576	-0.364401	 4.968462	 1.518543	-9.347576	 5.168945	 0.703820	 2.021906
-0.000589	 0.022501	 1.231577	 0.003153	 0.003738	-0.141058	 22.866340	-13.581220	 175.795900	 0.949705	-32.138360	-2.071180	-22.182730	 78.981500	 16.904260	-2.385833	 28.452760	 0.000004	-22.946740	-14.119870	-175.636500	-0.927580	-32.572070	 2.067434	 21.658950	 79.200970	-16.485770	 2.384658	 28.388730	 0.000004	-29.799100	 2.740896	-0.060830	 1.654842	 3.642243	 0.660495	-4.976375	-4.532985	-1.089778	-91.776120	 78.527450	 179.999900	 43.575470	 31.579780	-58.934050	-30.925120	 4.575147	-10.331480	-32.314950	 1.389381	-4.261338	-2.635965	 4.993658	 6.788941	-5.165319	 0.784187	 3.516649	-5.225038	 0.466231	 0.424329	-0.000002	-3.783157	-0.089647	-4.830858	 4.825551	 0.203657	 89.782170	 78.203900	 179.999900	-48.578370	 33.013660	 69.296040	 20.085760	 15.203470	 24.644190	 30.189470	-3.493026	 5.418270	 6.112037	 4.509576	-0.364401	 4.968462	 1.518543	-9.347576	 5.168945	 0.703820	 2.021906
-0.000592	 0.022882	 1.225702	 0.003153	 0.003738	-0.141058	 24.174890	-14.704470	 175.786100	 0.858757	-34.162480	-2.237463	-24.363590	 79.817870	 19.124270	-2.385833	 28.452760	 0.000004	-24.254980	-15.235240	-175.632900	-0.837498	-34.572160	 2.230295	 23.800840	 80.038310	-18.662420	 2.384658	 28.388730	 0.000004	-31.478750	 2.740894	-0.060830	 1.654841	 3.642247	 0.660523	-4.976386	-4.532984	-1.089799	-91.776180	 78.527490	 180.000000	 43.311740	 31.300690	-58.355920	-33.419470	 5.565945	-11.230360	-32.724430	 1.513947	-4.240211	-2.635965	 4.993658	 6.788941	-5.165319	 0.784187	 3.516649	-5.225038	 0.466231	 0.424329	-0.000002	-3.783157	-0.089647	-4.830858	 4.825551	 0.203657	 89.782120	 78.203890	 180.000000	-45.818470	 31.405670	 74.053640	 20.337920	 15.413590	 24.459170	 29.449430	-4.076007	 4.298822	 6.112037	 4.509576	-0.364401	 4.968462	 1.518543	-9.347576	 5.168945	 0.703820	 2.021906
-0.000594	 0.022828	 1.221365	 0.003153	 0.003738	-0.141058	 25.137310	-15.488000	 175.775600	 0.790000	-35.568820	-2.357741	-26.097990	 80.388760	 20.885540	-2.385833	 28.452760	 0.000004	-25.217840	-15.987190	-175.621100	-0.771043	-35.930860	 2.345442	 25.517640	 80.604840	-20.404010	 2.384658	 28.388730	 0.000004	-32.128170	 2.740897	-0.060830	 1.654839	 3.642241	 0.660527	-4.976386	-4.532981	-1.089800	-91.776140	 78.527430	 180.000000	 43.062710	 31.044590	-57.828980	-35.673340	 6.544991	-11.991260	-33.135450	 1.637766	-4.217130	-2.635965	 4.993658	 6.788941	-5.165319	 0.784187	 3.516649	-5.225038	 0.466231	 0.424329	-0.000002	-3.783157	-0.089647	-4.830858	 4.825551	 0.203657	 89.782060	 78.203920	-180.000000	-43.248870	 29.622640	 79.843470	 20.682460	 14.368040	 22.542090	 28.382180	-4.519459	 3.062983	 6.112037	 4.509576	-0.364401	 4.968462	 1.518543	-9.347576	 5.168945	 0.703820	 2.021906
-0.000591	 0.021678	 1.221373	 0.003153	 0.003738	-0.141058	 25.136540	-15.469820	 175.768800	 0.790474	-35.559320	-2.356920	-26.150260	 80.393990	 20.939820	-2.385833	 28.452760	 0.000004	-25.214900	-15.914860	-175.593800	-0.772941	-35.893110	 2.342194	 25.731180	 80.626060	-20.625770	 2.384658	 28.388730	 0.000004	-31.709950	 2.740898	-0.060830	 1.654839	 3.642246	 0.660524	-4.976392	-4.532986	-1.089800	-91.776190	 78.527430	-180.000000	 42.897740	 30.887690	-57.497250	-37.613990	 7.450427	-12.603630	-33.537300	 1.757267	-4.192714	-2.635965	 4.993658	 6.788941	-5.165319	 0.784187	 3.516649	-5.225038	 0.466231	 0.424329	-0.000002	-3.783157	-0.089647	-4.830858	 4.825551	 0.203657	 89.782120	 78.203870	 180.000000	-41.061020	 27.722070	 86.558190	 20.975730	 11.954120	 18.806750	 27.028850	-4.774708	 1.767480	 6.112037	 4.509576	-0.364401	 4.968462	 1.518543	-9.347576	 5.168945	 0.703820	 2.021906
